<?xml version="1.0" encoding="UTF-8"?>
<svg width="1500px" height="750px" viewBox="0 0 1500 750" version="1.1" xmlns="http://www.w3.org/2000/svg" xmlns:xlink="http://www.w3.org/1999/xlink">
    <!-- Generator: Sketch 51.3 (57544) - http://www.bohemiancoding.com/sketch -->
    <title>Group 17</title>
    <desc>Created with Sketch.</desc>
    <defs>
        <linearGradient x1="0%" y1="0%" x2="100%" y2="100%" id="linearGradient-1">
            <stop stop-color="#D2FBC5" offset="0%"></stop>
            <stop stop-color="#BBE5E9" offset="100%"></stop>
        </linearGradient>
        <polygon id="path-2" points="0.1307 0.324266667 10.753 0.324266667 10.753 24.9874333 0.1307 24.9874333"></polygon>
        <polygon id="path-4" points="0.406893656 0.728892308 39.0785789 0.728892308 39.0785789 55 0.406893656 55"></polygon>
        <polygon id="path-6" points="0.218344737 0.171940909 231.909866 0.171940909 231.909866 162 0.218344737 162"></polygon>
        <polygon id="path-8" points="0 0.0930090909 130.740204 0.0930090909 130.740204 241.538055 0 241.538055"></polygon>
        <polygon id="path-10" points="0 0.8092 9.4432 0.8092 9.4432 15.0852 0 15.0852"></polygon>
        <polygon id="path-12" points="0.0365765224 0.389972902 94.8150621 0.389972902 94.8150621 92.1730769 0.0365765224 92.1730769"></polygon>
        <polygon id="path-14" points="0.682657801 0.34947516 91.9872353 0.34947516 91.9872353 94.8725721 0.682657801 94.8725721"></polygon>
        <polygon id="path-16" points="0.8008 0.3776 25.79655 0.3776 25.79655 15 0.8008 15"></polygon>
        <polygon id="path-18" points="0 0.0640333333 13.40288 0.0640333333 13.40288 15.0892585 0 15.0892585"></polygon>
        <polygon id="path-20" points="0.1232 0.0716666667 13.1747502 0.0716666667 13.1747502 15.01675 0.1232 15.01675"></polygon>
        <polygon id="path-22" points="0 0.755709091 62.2442857 0.755709091 62.2442857 38 0 38"></polygon>
    </defs>
    <g id="Page-1" stroke="none" stroke-width="1" fill="none" fill-rule="evenodd">
        <g id="Group-17">
            <rect id="Rectangle" fill="url(#linearGradient-1)" fill-rule="nonzero" x="0" y="0" width="1500" height="750"></rect>
            <g id="Group-23" transform="translate(1291.000000, 546.000000)">
                <path d="M116.350911,20 L147,30.0302703 L139.160493,53.7297297 L125.744878,49.3362162 L106.336896,108 L76,98.0691892 L95.4079819,39.4075676 L98.3326208,30.5621622 L99.5293597,26.9535135 C106.763993,29.3232432 114.295643,26.2075676 116.350911,20" id="Fill-1" fill="#FF4E1F"></path>
                <g id="Group-5" transform="translate(139.000000, 29.000000)">
                    <mask id="mask-3" fill="white">
                        <use xlink:href="#path-2"></use>
                    </mask>
                    <g id="Clip-4"></g>
                    <polygon id="Fill-3" fill="#FF5C5C" mask="url(#mask-3)" points="10.7538667 1.24293333 2.91703333 24.9874333 0.1307 24.0731 7.96536667 0.324266667"></polygon>
                </g>
                <polygon id="Fill-6" fill="#FF5C5C" points="104.419565 113 74 102.856512 75.5804348 98 106 108.139073"></polygon>
                <path d="M89.5979232,11.065301 L58.8705627,1 L51.0115914,24.7727659 L64.4583434,29.1828428 L45,88.0323151 L75.4143927,98 L94.8683893,39.14402 L97.8024632,30.2718043 L99,26.6513329 C91.747404,24.2760086 87.5375513,17.2975445 89.5979232,11.065301" id="Fill-8" fill="#FF6A4D"></path>
                <polygon id="Fill-10" fill="#FF5C5C" points="57.1119951 0 49 24.0730979 51.8835169 25 60 0.929098577"></polygon>
                <polygon id="Fill-12" fill="#FF5C5C" points="44 92.8631347 74.4195652 103 76 98.1434879 45.5804348 88"></polygon>
                <path d="M31,69.6210716 L28.4785418,60 C18.9849687,62.5027048 9.49139566,65.00322 0,67.5037352 C0.746856782,70.6698867 1.49589099,73.8382277 2.24492519,77 C10.1076069,75.5789541 20.9206996,73.2185729 31,69.6210716" id="Fill-14" fill="#45C6AB"></path>
                <g id="Group-18" transform="translate(1.000000, 68.000000)">
                    <mask id="mask-5" fill="white">
                        <use xlink:href="#path-4"></use>
                    </mask>
                    <g id="Clip-17"></g>
                    <path d="M29.7219474,0.728892308 C19.7330526,4.26766154 9.01694737,6.58950769 1.22478947,7.98735385 C1.39957895,8.72396923 1.57652632,9.45843077 1.75131579,10.1950462 C1.71247368,10.1950462 1.67147368,10.1972 1.63263158,10.1972 C0.0487368421,23.0578154 -0.643947368,38.6172 3.633,54.0732 C15.5445789,56.2292 29.2687895,54.4759692 39.0785789,50.3728923 C37.6586842,41.7015077 35.9215789,30.8375077 34.9375789,20.5959692 C34.9613158,20.6498154 34.9850526,20.7058154 35.0109474,20.7618154 L29.7219474,0.728892308 Z" id="Fill-16" fill="#40AFA1" mask="url(#mask-5)"></path>
                </g>
                <path d="M59,60.6942919 C58.1611637,57.7940238 57.3223274,54.8980973 56.4813179,52 C46.988994,54.4878049 37.494497,56.971268 28,59.4634146 L30.5165089,69 C42.3167192,64.8167539 52.8391167,62.1183757 59,60.6942919" id="Fill-19" fill="#59CEB2"></path>
                <path d="M36.2762938,89.7441512 C40.4374835,99.2583842 44.2542395,109.668203 47.2701872,118 C57.8184694,116.765011 70.7218171,111.430909 80,103.583036 C73.490203,86.7004725 67.6886477,74.2498559 60.0142343,63.8006223 C59.7472981,62.8678115 59.4846674,61.9306212 59.2155786,61 C53.1126439,62.4364412 42.6892189,65.1582344 31,69.3777803 L36.2762938,89.7441512 Z" id="Fill-21" fill="#45C6AB"></path>
            </g>
            <g id="Group-94" transform="translate(554.000000, 169.000000)">
                <path d="M349,205.5 C349,290.274812 280.276036,359 195.5,359 C110.723964,359 42,290.274812 42,205.5 C42,120.723964 110.723964,52 195.5,52 C280.276036,52 349,120.723964 349,205.5" id="Fill-1" fill="#24BCB1"></path>
                <path d="M60.7107272,142.145098 C62.7204464,140.715409 65.1118044,140.361356 67.5496439,140.247422 C68.5697936,140.198419 69.138582,140.839144 69.1593765,141.787369 C69.1789477,142.675565 68.7716217,142.968363 67.7049905,143.05902 C65.1986516,143.270962 64.0280483,145.898795 65.5411479,147.78912 C66.418183,148.883132 67.1753444,149.93794 67.0554707,151.406832 C66.9735163,152.408961 67.4676895,153.197924 68.6994529,152.08431 C68.9893515,151.823365 69.3367406,151.463186 69.8223514,151.866243 C70.2749358,152.242348 70.6272176,152.71401 70.6431193,153.253053 C70.6626905,153.929307 70.0033851,153.849675 69.5030959,153.849675 C67.7759361,153.8509 67.2695309,154.191477 68.5379903,155.67507 C69.9556803,157.327726 69.6193,159.417742 69.2535629,161.158605 C68.9379771,162.670374 66.7643489,162.030874 65.6010848,162.286919 C62.0770427,161.952468 60.3290885,159.534126 61.6024407,156.873215 C62.5027166,154.991466 63.2843421,153.414766 61.445871,151.276971 C59.9584586,149.545909 59.7138184,147.110416 59.4324821,144.859913 C59.2808052,143.633591 59.717488,142.850754 60.7107272,142.145098 M79.9516788,146.092361 C80.0373029,144.915042 81.7485611,143.161928 82.6414978,143.367745 C83.5784698,143.583362 83.1503494,144.304944 83.2726695,144.801108 C82.9986725,146.092361 82.6769706,147.392189 80.9730516,147.535525 C80.0580973,147.611481 79.9015276,146.799242 79.9516788,146.092361 M104.471966,82.4436664 C104.583277,82.5931283 104.686026,82.7511658 104.814462,82.8859265 C105.60098,83.7177674 106.523274,84.6672176 105.552052,85.7636795 C104.493984,86.9569241 103.295247,86.2757701 102.355828,85.4757817 C102.160116,85.3091685 101.943609,85.1670573 101.735665,85.012695 C101.624354,84.9306135 101.514266,84.8644583 101.405401,84.7897274 C102.416988,83.9946393 103.440808,83.2130274 104.471966,82.4436664 M45.7681038,197.781657 C47.2983283,199.349781 48.2866747,200.986511 48.4787173,202.954017 C48.6157158,204.37513 48.9875689,205.848921 49.5404557,207.262683 C50.2584747,209.092978 51.3581324,209.546264 53.2259603,208.970469 C56.9983122,207.806626 60.8330473,206.704039 64.5295607,205.335606 C69.0431724,203.669474 73.6375153,202.076847 76.5768673,198.274146 C77.3780639,197.240164 77.682641,195.93176 78.6183897,195.10482 C80.2452471,193.667781 79.3572031,192.869018 77.762149,191.877914 C76.0166412,190.791253 74.1512597,189.637212 73.5421056,187.768939 C73.051602,186.255944 72.6406065,186.205715 71.7073041,187.264199 C70.4645319,188.679186 68.5636776,189.197402 66.667716,189.627411 C65.7234049,189.843028 64.5943903,189.893257 63.941201,188.684086 C62.1479884,185.366523 60.6079783,181.977905 58.494287,178.800003 C57.9365073,177.962036 56.8784385,176.985634 58.1163179,176.158693 C59.3749917,175.315827 60.7669944,175.592699 62.0648107,176.521322 C62.8158561,177.05669 63.2586549,177.770921 63.7210248,178.501079 C65.8004665,181.780664 68.7630593,183.816775 73.0540484,183.4958 C74.0607428,183.421069 74.6894681,183.695491 75.0980173,184.462401 C75.9151155,185.997448 77.2899935,186.640624 79.0746437,187.019179 C80.9498108,187.417336 82.8408796,187.509218 84.6854667,187.897574 C87.1966983,188.429266 90.0822294,187.901249 92.1543319,189.442421 C94.3181745,191.049749 96.2960905,192.789386 98.910071,193.803767 C99.5522515,194.051236 100.463536,194.707888 99.2978257,195.248156 C98.1419008,195.782299 98.2507657,196.325017 99.1865144,197.036798 C100.225012,197.824535 101.160761,197.82331 101.798049,196.822406 C102.107518,196.337268 102.151554,195.420895 102.876912,195.564231 C103.795536,195.745546 103.822446,196.755026 103.956998,197.422704 C104.169835,198.477512 104.193076,199.558048 104.199192,200.618982 C104.210201,202.492155 104.397351,204.337152 105.078674,206.195624 C106.944055,211.281002 109.165388,216.278173 111.98609,221.114856 C112.619708,222.200292 113.40011,223.229374 114.158495,224.345437 C114.475304,224.088167 114.658784,223.988934 114.772542,223.840697 C117.280104,220.583164 117.711893,216.677555 117.545538,212.613907 C117.478262,210.951451 118.016471,209.828037 119.578498,208.863885 C123.470724,206.45902 126.978864,203.56289 129.863172,200.124043 C130.906563,198.883019 132.080836,198.317024 133.689345,198.303548 C135.091133,198.292523 136.336352,197.985023 137.443349,197.31367 C138.061065,196.940015 138.719147,196.652117 139.143598,197.392076 C141.207138,200.985286 145.706071,203.647422 144.783778,208.389773 C144.651672,209.073377 144.566048,209.941971 145.572743,210.331552 C146.442438,210.667228 147.16535,210.248245 147.838111,209.854989 C148.201401,209.643047 148.507202,209.351474 148.825234,209.083178 C149.866178,208.199883 150.475332,208.504932 150.793364,209.716553 C151.501598,212.411766 152.226956,215.10698 152.942529,217.804644 C153.296034,219.135099 153.296034,220.427577 153.115,221.79111 C152.80553,224.112669 152.77495,226.506508 154.526574,228.608775 C155.326547,229.569251 155.626231,230.637536 155.962612,231.776876 C156.790719,234.565197 158.264676,237.119525 160.543499,239.219341 C161.007093,239.6469 161.52206,240.288851 162.20583,239.856391 C162.735476,239.51949 162.292677,238.875089 162.268213,238.354422 C162.035805,232.988497 157.222509,229.705237 154.721063,225.348792 C154.153498,224.356463 153.748618,223.531973 153.957785,222.566596 C154.197533,221.465234 154.690483,220.423901 155.028086,219.343366 C155.33144,218.366963 155.823167,217.608628 157.111198,217.685809 C158.6561,217.781367 160.949602,217.69806 161.312893,218.961135 C162.072501,221.591419 165.520704,222.765062 164.931121,226.299467 C167.365291,224.489999 169.184191,223.081137 171.07893,221.755582 C172.170025,220.992346 172.55044,220.09435 172.467263,218.82515 C172.211614,214.909739 171.149875,211.342257 168.425807,208.089624 C165.087691,204.099483 165.244261,203.881415 169.421492,200.71699 C169.478983,200.672886 169.534027,200.628783 169.590294,200.584679 C170.462436,199.887599 171.295436,199.662181 172.346166,200.473195 C172.704564,200.751292 173.113113,201.553731 173.988925,200.882378 C176.305667,199.110887 179.197315,198.433409 182.092631,197.921318 C184.152502,197.557464 185.842966,196.731749 187.471046,195.598534 C191.417093,192.849416 192.898389,188.529724 195.779027,185.094552 C196.216933,184.571435 196.342923,183.477423 195.728876,183.225053 C193.56748,182.334408 194.717289,181.490316 195.66527,180.758933 C195.191891,179.924642 192.558339,180.097381 194.349105,178.771825 C195.797375,177.701091 195.319104,177.083642 194.70261,176.155018 C194.204768,175.408934 193.706925,174.648149 193.106333,173.96822 C191.643385,172.304538 192.226852,170.900577 193.622524,169.48559 C194.708726,168.383002 196.145988,167.716549 197.964887,166.783025 C195.116052,166.623763 192.767506,167.074598 190.598771,166.083495 C188.768862,165.247979 188.279582,164.146616 189.521131,162.909268 C191.179792,161.252937 193.229876,159.993537 195.536834,159.14577 C196.079935,158.944854 196.767374,158.860322 197.190601,159.357712 C197.607713,159.848976 197.26644,160.362292 197.036478,160.871932 C196.701321,161.625367 195.643252,162.192587 196.238951,163.231469 C197.047487,162.980324 197.180816,162.201162 197.727587,161.757677 C199.226008,160.53748 200.795375,161.026294 202.342724,161.528584 C203.709039,161.974519 203.755521,162.877416 203.260125,163.988579 C203.037502,164.485968 203.042395,165.227152 203.602621,165.470946 C206.255744,166.624988 206.014773,168.749306 205.940158,170.854023 C205.920587,171.434719 205.836186,172.104847 206.928504,172.049718 C209.169409,171.938234 210.814614,170.028308 210.111273,168.145333 C209.423834,166.305237 208.540683,164.528847 207.806763,162.699777 C207.546221,162.052925 207.048378,161.406074 207.827557,160.65754 C210.292307,158.299228 212.673879,155.877211 215.086032,153.485822 C215.544732,153.030085 216.14777,152.536371 216.832763,152.928402 C219.101801,154.224555 220.441206,152.797317 221.768379,151.535467 C224.345663,149.082823 226.456908,146.295727 228.234219,143.360394 C230.739335,139.228142 231.979661,134.773689 231.448791,129.997035 C231.167455,127.456184 229.799917,126.613317 227.390211,127.521114 C226.25141,127.951123 225.195788,128.202268 224.176862,127.251592 C223.719384,126.824034 223.222765,126.294792 222.64786,126.137979 C220.551294,125.567084 221.252188,124.550253 222.135339,123.646132 C225.710756,119.981866 229.512464,116.592023 233.819355,113.791451 C235.115948,112.947359 236.704886,112.182898 238.217986,112.82975 C240.909028,113.977666 243.256351,113.238932 245.613459,112.396065 C246.478262,112.087341 247.223192,111.993008 248.062307,112.386264 C249.528925,113.075994 251.128872,113.08702 252.683561,113.300187 C253.708603,113.438623 254.300632,113.085795 254.661477,112.035887 C255.663278,109.152008 260.64293,105.745013 263.541916,105.784216 C264.85808,105.802593 266.033576,105.896925 264.903339,107.564282 C264.604878,108.001642 264.199998,108.583563 264.817715,109.170385 C265.270299,109.267167 265.491698,108.99152 265.715544,108.757527 C267.134457,107.270259 269.459762,106.596456 269.972284,104.298173 C270.099496,103.730953 270.900693,103.201712 271.661524,103.652547 C272.293919,104.026202 272.137349,104.768611 271.931852,105.315004 C271.519633,106.417591 271.126985,107.630437 270.033444,108.251562 C267.555238,109.662874 265.859882,111.799443 263.959028,113.787775 C263.079546,114.706598 262.256332,115.774883 261.141996,116.391107 C259.093134,117.527997 258.197751,119.290912 258.064422,121.309872 C257.827121,124.866328 258.399579,128.381132 260.016651,131.717071 C260.282085,132.265915 260.746902,132.668972 261.028238,132.038047 C262.019031,129.81082 265.100274,128.980204 265.302102,126.21516 C265.393842,124.954535 266.328368,123.87645 267.892842,123.673084 C268.637771,123.576301 268.795564,123.402337 268.634102,122.657478 C268.327078,121.237591 268.456738,119.863032 270.248727,119.33134 C270.750239,119.181878 270.785712,118.806998 270.523947,118.612208 C269.394933,117.769341 269.633457,116.513616 269.20656,115.469834 C268.221883,113.050267 269.560065,110.788738 272.188724,110.25337 C272.861484,110.114934 273.229668,109.659198 273.747082,109.36395 C275.786158,108.198883 278.23256,107.255558 280.455116,108.184181 C282.360863,108.979269 283.308844,108.67667 284.495349,107.679441 C285.357706,106.954184 286.218839,106.197074 287.209632,105.650681 C289.547169,104.360653 291.775841,102.846433 294.672381,102.701872 C295.531068,102.658994 296.671092,103.357299 297.177497,102.474004 C297.690018,101.578458 296.715127,100.735591 296.198936,99.9441784 C295.531068,98.9236725 294.702961,98.0795806 293.367226,97.8051588 C292.415575,97.6079182 291.362399,97.0431484 291.550772,96.0814472 C291.736699,95.119746 292.862044,95.5681315 293.669356,95.7347448 C297.124899,96.4428509 297.390334,96.2762377 297.54935,93.1350887 C297.572591,92.658526 297.616626,92.20524 298.13037,92.0386268 C298.735855,91.8401611 299.096699,92.3093733 299.291188,92.7295816 C299.768237,93.7611133 300.348034,93.9191509 301,93.7304859 C296.931633,89.9057328 292.658992,86.2978219 288.193086,82.93003 C285.005424,82.6066043 281.806753,82.4265151 278.592181,81.9683288 C278.794009,82.4816444 278.986052,82.7989446 279.028864,83.1162447 C279.148737,84.0019899 279.952381,85.0641491 279.094917,85.7257015 C278.286381,86.3480509 277.263785,85.6975243 276.357393,85.3373458 C275.095049,84.8375061 273.829036,84.5716601 272.507979,84.394021 C269.728867,84.0215915 267.076967,84.4957041 264.348005,84.4050469 C262.636747,84.3474673 261.038024,84.1183741 260.315112,82.0994141 C259.92858,81.0274542 258.945127,80.6587 257.954334,80.6587 C255.790491,80.6574749 253.514114,80.4002045 251.541091,81.0764581 C248.74363,82.0332589 246.477039,80.0767788 243.985378,79.5144593 C243.727283,79.4568797 243.496098,79.031771 243.302832,78.7463234 C242.022141,76.8400723 241.189141,76.5803518 239.232019,77.555529 C238.477304,77.9304087 237.782526,78.4314735 236.994785,78.7401979 C236.564218,78.9104864 236.030902,79.4421786 235.541622,78.8908849 C235.152644,78.4523001 235.562416,78.0161655 235.836413,77.6621125 C236.551986,76.7371642 236.193588,76.3978123 235.108609,76.406388 C232.968007,76.4235393 230.834745,76.5742263 228.670902,76.2238485 C227.881937,76.0964384 227.063616,76.2949041 227.155356,77.2872328 C227.359631,79.4801566 226.41165,80.5790687 224.227013,80.4308319 C221.454016,80.2433921 218.700591,80.0522769 215.926371,80.0718785 C214.880534,80.0780039 214.311746,79.9616197 214.035302,81.0066275 C213.734395,82.1459678 212.978456,82.8369226 211.798068,82.2795034 C209.412826,81.1536392 207.324821,79.5830647 205.685732,77.5102004 C205.240487,76.9466558 204.93958,76.2238485 206.062478,76.0437592 C206.649615,75.9506519 207.371303,76.0253828 207.226965,75.1004345 C207.105869,74.3163723 206.450233,73.8336841 205.819061,73.7871304 C203.379998,73.605816 200.940936,73.1574305 198.599729,74.3960036 C196.193692,75.6664293 193.305715,75.8648951 191.121078,74.4107048 C188.893629,72.9258871 186.642939,72.7678496 184.677255,73.4820812 C182.189264,74.3849778 181.501825,73.1954085 180.962394,71.4373942 C180.583201,70.2098469 179.919003,69.8276166 178.780203,69.9636024 C178.215084,69.9599271 177.625501,69.8129154 177.132551,70.2527253 C177.115427,70.2931535 177.117873,70.3262311 177.108087,70.3654342 C176.819412,70.3862609 176.473246,70.3972867 176.596789,70.8113696 C176.695869,71.144596 176.99433,71.1384705 177.290344,71.1139685 C177.338049,71.1739983 177.389424,71.2364783 177.44936,71.2928327 C177.516636,71.3393864 177.598591,71.3540876 177.671983,71.3871652 C177.598591,71.4288185 177.520306,71.4508702 177.440798,71.4704718 C177.345388,71.4692467 177.249979,71.4888483 177.155792,71.5133502 C176.949071,71.5207008 176.738681,71.5109 176.540522,71.5537784 C176.032894,71.662812 175.950939,71.9298832 176.276311,72.3145637 C176.257963,72.3476413 176.238391,72.3647927 176.221267,72.3990954 C176.301998,72.8278794 176.709324,73.2382869 176.229829,73.6915728 C175.252491,74.6189713 171.548639,75.0832831 169.989058,74.2943206 C173.132684,72.8082778 175.577863,70.463442 178.776534,69.5164419 C181.351372,69.0643811 180.945269,66.8004017 181.418648,64.9358039 C180.946492,65.0191105 180.449872,65.1795982 180.078019,64.8843498 C178.341074,63.498765 176.445112,63.6580277 174.486768,64.1835943 C171.779824,64.9100769 169.552375,63.7364339 167.525531,62.5689163 C167.119428,61.4981815 169.499777,61.618241 168.198291,60.5622073 C167.203829,59.7536432 165.798371,59.787946 164.7929,60.8562306 C163.914641,61.7934299 162.314695,62.5186874 163.169712,64.3220303 C163.71159,65.4576953 162.917733,65.7615194 162.170357,65.6120575 C158.62552,64.9015012 155.289851,66.9192361 151.559088,66.5100537 C147.455249,66.0567678 142.989342,67.5428105 138.673889,68.3930279 C136.203023,68.8806165 136.141863,69.2677472 137.365064,71.410442 C137.659855,71.9249828 137.949754,72.4615753 137.465366,73.0741239 C136.952845,73.7197501 136.469681,73.1819324 136.023212,73.063098 C133.783531,72.4738263 131.453333,72.4738263 129.136591,72.3856193 C128.286466,72.3525417 127.348271,72.1736775 127.038801,73.4428781 C126.788045,74.4829855 127.211272,74.9705742 128.140905,75.3822068 C130.213008,76.2973543 131.23805,78.0553687 131.277193,80.3781527 C131.291871,81.151189 130.917571,81.9180998 130.014849,82.0283585 C129.102341,82.1410674 128.510312,81.4733895 128.679114,80.7003533 C129.301723,77.844652 127.052256,77.5959572 125.404605,76.6820348 C123.69457,75.7325846 121.760689,76.9638071 119.969923,76.2091473 C120.259821,77.5751306 121.462228,77.9794126 122.022454,78.9006856 C122.187586,79.170207 122.492163,79.410326 122.319692,79.7668293 C122.103185,80.2103144 121.645708,80.2752446 121.249391,80.1907129 C120.738093,80.0829043 120.239027,79.9126158 119.764425,79.7104748 C117.861124,78.9006856 117.303344,77.0961176 116.859322,75.1469882 C114.512,77.9830879 114.667346,77.9745122 114.527901,81.3067763 C114.455732,83.0329381 115.102806,83.6234349 116.597557,83.9321594 C118.999924,84.4270986 120.681826,85.7281517 121.059795,88.2653278 C121.152758,88.8938026 121.392505,89.3948673 121.880562,89.7746474 C122.24263,90.0588699 122.757598,90.3271662 122.319692,90.8735595 C121.955178,91.3329709 121.419416,91.4738571 120.817601,91.2864172 C119.300832,90.8123046 118.900845,89.6239605 118.740606,88.2396008 C118.618285,87.1786667 118.088639,86.3186485 116.997544,86.110382 C115.83061,85.8874143 115.289956,86.8748426 114.761533,87.6944326 C113.73649,89.2858337 112.688207,90.8576332 111.128626,92.0423021 C108.612501,93.9522285 107.363613,93.9608042 105.109254,92.117033 C104.676241,91.7617549 103.919079,91.4934586 104.369217,90.7473745 C104.774097,90.0760213 105.511687,90.3639191 106.095154,90.3994469 C106.484132,90.4202736 106.983198,90.5170562 107.197258,90.7706513 C108.651644,92.495588 109.434492,91.0904017 110.016736,89.920434 C111.756128,86.4313575 112.487602,82.8099705 111.937162,79.1212031 C111.838082,78.4473997 111.82585,77.7956481 112.031348,77.1598227 C73.1898237,102.651643 46.5925413,145.309524 43,194.374662 C43.7620542,195.558106 44.7026958,196.687645 45.7681038,197.781657" id="Fill-3" fill="#AFE13A"></path>
                <path d="M230.749748,152.656021 C229.988766,152.852025 229.966384,153.544242 230.015859,154.219092 C229.954604,155.292153 230.447004,156.203945 231.371727,156.77583 C232.536759,157.495339 232.496708,156.296985 232.926674,155.788366 C233.098661,155.5874 233.573391,155.562589 233.916186,155.542741 C236.205022,155.407523 237.539685,153.582699 239.392664,152.683313 C239.94632,152.414117 240.051161,151.618935 239.980481,151.013555 C239.92865,150.552077 239.410334,150.377162 238.979189,150.468962 C237.186288,150.844843 236.051883,149.804036 234.833841,148.867434 C234.362645,148.506439 233.918542,147.795613 233.238842,148.056125 C232.494352,148.341448 232.473148,149.13911 232.500241,149.822644 C232.553251,151.130166 232.364773,152.241683 230.749748,152.656021" id="Fill-5" fill="#AFE13A"></path>
                <path d="M234.624569,125 C232.886571,128.587657 232.283182,131.851236 234.119379,135.227642 C234.416341,135.774972 234.292114,136.516749 234.360734,137.168505 C234.43882,139.398637 234.501525,141.62757 234.577245,143.857702 C234.593808,144.337817 234.791389,144.768719 235.333256,144.942761 C235.78284,145.086795 236.191015,144.953564 236.465498,144.60428 C236.741164,144.250196 236.773108,143.784485 236.43947,143.512019 C234.786656,142.164098 235.381764,140.367269 235.229142,138.716875 L235.229142,138.715674 C236.004083,137.835864 236.909167,138.967735 238,138.643657 C236.538851,136.491543 235.956758,134.229003 235.302495,131.95446 C234.671894,129.755535 235.445652,127.450985 234.624569,125" id="Fill-7" fill="#AFE13A"></path>
                <path d="M226.034072,167.053875 C224.060234,166.172365 223.805146,167.435946 223.096842,168.396118 C222.41702,169.318832 221.364471,169.690914 220.200477,169.884447 C217.68922,170.296484 215.358753,171.025666 213.682105,172.960993 C213.189265,173.530353 212.528017,173.828768 211.667404,173.619004 C211.16218,173.494144 210.710204,172.61638 210.155449,173.334323 C209.714617,173.908679 210.32138,174.456813 210.616093,175.009942 C211.215427,176.137426 212.479723,177.091355 212.057466,178.530988 C211.739225,179.618517 211.928683,180.642368 213.013428,180.94328 C214.238099,181.282898 214.491949,180.01682 214.950117,179.28639 C215.363706,178.62713 215.611365,177.889209 216.002665,177.219961 C216.370438,176.591916 216.890521,176.083736 217.764755,176.058764 C219.068677,176.018809 220.38622,175.626749 220.661121,174.449322 C220.927354,173.303109 219.043911,173.760095 218.583267,172.852365 C220.144753,172.515243 221.19111,173.0434 222.000954,174.173381 C222.342722,174.649097 222.954439,175.509381 223.53396,174.805172 C225.221752,172.75872 227.684716,172.858608 229.932216,172.622623 C231.43798,172.465299 231.814421,171.863475 232.089322,170.752223 C232.751808,168.07398 233.418009,165.403229 234.662493,162.862332 C235.192482,161.774803 235.052555,160.577397 234.559715,159.463648 C234.126313,158.48225 233.375908,157.905398 232.143807,158.012777 C230.884463,158.122654 230.607086,159.021644 230.416389,159.9069 C230.200926,160.91327 230.103101,161.938369 229.933455,162.952231 C229.793528,163.792537 229.532248,164.483012 228.329866,163.969838 C227.94971,163.806272 227.522499,163.49662 227.102718,163.92364 C226.582635,164.453046 227.19559,164.756455 227.383811,165.164747 C227.947234,166.388373 226.886017,167.434698 226.034072,167.053875" id="Fill-9" fill="#AFE13A"></path>
                <path d="M180.957947,288.774538 C179.04454,289.998641 179.084758,291.477358 180.709326,294.385828 C181.222411,295.303906 181.74159,296.352963 180.771481,297.097217 C180.067055,297.639495 179.979306,296.272172 179.379691,296.115486 C179.272443,296.08978 179.151788,296.121607 179.007978,296.128952 C178.942167,296.914826 179.29438,297.57217 179.663655,298.18667 C182.260769,302.50041 183.02735,307.290327 183.195535,312.238153 C183.235753,313.475722 183.346658,314.440316 184.453265,315.08297 C185.611059,315.755003 186.683541,316.097752 187.879115,315.172329 C188.487262,314.704722 189.080783,314.144083 189.759616,313.845401 C193.00022,312.43401 196.507725,311.853785 199.582582,309.387216 C200.630689,308.54993 202.373474,308.824129 203.795732,308.352849 C207.442173,307.148331 210.231846,308.41283 212.447497,310.97243 C213.15558,311.787683 213.070269,313.656889 214.117158,313.569978 C215.341982,313.465929 215.595478,311.575913 216.363278,310.526857 C216.761802,309.982131 217.137171,309.405578 217.764817,309.747103 C218.338839,310.055577 218.215748,310.661508 217.914721,311.301714 C217.479634,312.227136 217.082328,313.1648 216.613117,314.227322 C217.484509,314.033913 218.667896,312.967719 218.652053,314.091446 C218.617928,316.260557 219.93172,317.454058 220.431399,319.17882 C221.182137,321.765351 222.807923,322.327214 225.518379,320.942753 C226.146025,320.623262 226.901638,320.17524 227.18682,320.751793 C228.336083,323.092279 229.710811,321.737196 231.225692,319.98428 C231.410939,319.767614 231.686372,319.466484 231.876494,319.448123 C234.573544,319.15189 235.203628,316.745302 236.192018,314.687584 C236.789196,313.448792 237.329093,312.175724 238.059113,310.99324 C241.672648,305.157939 243.297215,299.077817 244.865721,293.003815 C245.180153,291.798073 244.982719,291.020768 243.840769,290.651088 C242.423385,290.189601 241.517869,289.141769 240.850005,287.805048 C240.005425,286.118233 239.363154,284.056843 237.894584,283.013907 C235.457124,281.27568 234.809978,278.712407 234.713698,275.84066 C234.646668,273.851492 234.751479,271.968821 233.374314,270.450933 C232.647951,269.652817 232.34083,268.474006 232.199458,267.275608 C232.11049,266.505647 232.116584,265.602259 231.337816,265 C230.000869,266.625609 229.445128,268.306304 229.100227,270.05922 C228.54083,272.910157 227.352568,275.60196 225.745063,278.189715 C225.151541,279.144516 224.639674,279.380768 223.813375,278.735665 C222.287525,277.544612 220.739738,276.342543 219.071296,275.283693 C217.546665,274.314203 217.485728,272.921174 218.019532,271.298012 C218.320558,270.381159 218.745895,269.501029 219.368666,268.679655 C219.940251,267.924383 220.006062,267.421277 218.960392,266.855741 C217.18592,265.897268 215.107985,266.204518 213.248203,265.68305 C212.874053,265.579001 212.586433,265.815253 212.463341,266.20207 C212.139159,267.208283 211.015489,267.597548 210.517029,268.388318 C209.678542,269.71035 207.90529,270.846318 208.302596,272.452342 C208.691371,274.030211 208.112474,274.20281 206.848651,274.261567 C205.944353,274.300738 205.113179,274.035108 204.249099,273.951869 C202.858528,273.814769 202.325943,271.679933 201.149869,272.280968 C200.109073,272.812228 199.611831,274.452527 198.285853,275.062131 C197.737424,275.311848 197.45346,275.74518 197.432741,276.360904 C197.409586,277.073333 197.646019,277.997531 196.74294,278.317022 C195.843517,278.634065 195.733832,277.428323 194.89047,277.133314 C194.232356,278.640185 194.995281,280.360051 193.627866,281.465416 C192.201951,282.622194 190.916191,283.925864 189.082002,284.485279 C186.097332,285.393564 183.512405,287.135463 180.957947,288.774538" id="Fill-11" fill="#AFE13A"></path>
                <path d="M193.267938,261.006552 C192.614525,261.040829 192.002599,261.278225 192.000006,261.938364 C191.997413,262.829552 192.803808,263.042828 193.553158,262.993317 C194.194902,262.951424 194.878133,262.724184 195,261.858386 C194.732931,261.109382 194.056182,260.964659 193.267938,261.006552" id="Fill-13" fill="#AFE13A"></path>
                <path d="M211.000336,259.018576 C210.986601,259.654315 211.395233,260.070144 211.977848,259.990177 C212.534137,259.915541 212.884393,259.453064 213,258.811995 C212.89355,258.121612 212.451724,257.94835 211.886278,258.012323 C211.350592,258.072299 211.011782,258.496124 211.000336,259.018576" id="Fill-15" fill="#AFE13A"></path>
                <path d="M239.044616,253.220112 C235.055423,250.852585 230.67719,249.021896 225.972906,247.603112 C224.375994,247.123174 223.415129,247.218419 222.17885,248.441765 C220.416442,250.182157 218.426785,249.68985 217.898186,247.527657 C217.335006,245.218267 215.860363,244.546602 213,245.287537 C213.340872,246.004969 213.98433,246.350079 214.741413,246.582626 C215.906059,246.936394 217.064531,247.235737 215.399691,248.652047 C214.689541,249.256917 214.751293,250.507476 215.688692,250.3108 C218.934388,249.63295 220.889464,251.454981 223.056966,252.753781 C225.943265,254.480567 226.001312,255.639591 223.378078,258.861852 C224.855191,258.208741 225.656735,258.642911 226.48298,258.89525 C227.982323,259.351685 229.41868,259.931816 230.916789,260.363512 C231.7912,260.617087 232.574218,260.541633 233.383173,259.579284 C235.530915,257.02003 238.613585,256.984158 239.634967,259.673293 C240.550135,262.096482 242.726283,261.905992 245,262 C244.482516,261.118053 243.689618,260.508235 242.938711,259.853888 C242.054419,259.083266 241.257816,258.094941 241.389965,256.883965 C241.606098,254.918448 240.413045,254.031553 239.044616,253.220112" id="Fill-17" fill="#AFE13A"></path>
                <path d="M245.101985,254.991837 C245.947821,254.902367 248.823214,251.837353 248.995535,250.664758 C249.041713,250.045248 248.729733,249.744305 248.05847,250.270278 C246.959221,251.127018 245.844203,251.906489 244.659357,252.561244 C244.024135,252.915056 243.894612,253.666059 244.073691,254.328948 C244.21335,254.842721 244.587275,255.044705 245.101985,254.991837" id="Fill-19" fill="#AFE13A"></path>
                <path d="M202.666661,226.236213 C201.837269,226.57062 200.861138,227.189387 200.137653,227.063131 C197.884259,226.666165 197.635442,227.8582 197,229.397155 C198.976505,228.695355 200.399231,227.995831 200.970873,230.1854 C201.306458,231.47298 202.823607,231.01118 203.720626,230.32303 C204.792456,229.502937 205.176528,228.383697 204.926434,227.205311 C204.699309,226.141806 204.038347,225.68228 202.666661,226.236213" id="Fill-21" fill="#AFE13A"></path>
                <path d="M203.522602,248 C203.199079,248.048313 203.004965,248.20237 203.000063,248.49772 C202.996141,248.783042 203.17653,249.000909 203.476524,248.999997 C203.775538,248.996351 203.977495,248.77575 203.998083,248.488604 C204.020632,248.194165 203.843184,248.041932 203.522602,248" id="Fill-23" fill="#AFE13A"></path>
                <path d="M209.044221,249.002781 C208.284051,249.010675 207.030396,249.059356 207.000487,250.163221 C206.973071,251.205248 208.10834,250.928953 208.888448,251 C209.65111,250.844748 210.879842,251.203932 210.993244,250.048755 C211.1054,248.931734 209.79442,248.996203 209.044221,249.002781" id="Fill-25" fill="#AFE13A"></path>
                <path d="M191.239067,248.168873 C190.540948,251.106487 191.453089,253.936836 192.921943,257 C193.626432,254.643814 192.298986,252.820299 193.050611,250.952903 C193.217497,250.540905 193.188196,249.898531 193.860837,249.859525 C194.443028,249.821738 194.785718,250.298339 194.952604,250.722525 C195.39084,251.843938 195.722064,252.999481 196.127177,254.130646 C196.262215,254.506075 196.491524,254.921729 197.036771,254.837623 C197.590935,254.749861 197.597305,254.286668 197.661002,253.881984 C197.90942,252.305912 197.334873,251.083328 196.181957,249.893655 C195.443071,249.130607 193.551269,248.233476 195.603588,246.839024 C196.181957,246.901189 196.773065,246.918254 197.337421,247.031614 C197.917064,247.148631 198.709455,247.386322 198.819014,246.723226 C198.961695,245.879728 197.990952,246.057691 197.390926,246.046721 C196.509359,246.032094 195.623971,246.086946 194.74113,246.111324 L194.742404,246.112543 C194.743678,246.113762 194.74113,246.111324 194.74113,246.112543 C193.981861,246.04794 193.134691,246.000402 193.05698,245.131307 C192.981818,244.302436 193.585666,243.745387 194.415001,243.438217 C195.539891,243.021344 196.688985,242.637382 197.919612,243.006717 C199.053419,243.345579 200.016518,243.021344 201,242.481359 C200.629283,241.865801 200.118433,242.010853 199.708224,242.024262 C191.974131,242.282674 192.591992,242.486235 191.239067,248.168873" id="Fill-27" fill="#AFE13A"></path>
                <path d="M193.029075,232.615713 C193.100075,232.855713 193.303075,232.943713 193.642075,232.898713 C193.922075,232.825713 194.052075,232.609713 193.964075,232.301713 C193.894075,232.058713 193.682075,231.964713 193.423075,232.011713 C193.062075,232.077713 192.937075,232.305713 193.029075,232.615713" id="Fill-29" fill="#AFE13A"></path>
                <path d="M119.073432,224.017415 C117.972557,223.817214 118.09816,225.385878 118,226.524996 C118.244873,227.418298 118.047497,228.809569 119.488239,228.986962 C120.303077,229.085795 121.216075,228.627107 120.954313,227.46138 C120.659832,226.151203 120.585948,224.297443 119.073432,224.017415" id="Fill-31" fill="#AFE13A"></path>
                <path d="M203.786961,260.069931 C201.534479,260.759271 199.57456,261.987001 198.25155,263.902813 C197.694902,264.709139 198.071611,265.04123 199.287174,264.995945 C201.116345,264.163202 203.248436,263.241147 204.694427,261.424711 C205.393473,260.546683 204.80964,259.756709 203.786961,260.069931" id="Fill-33" fill="#AFE13A"></path>
                <path d="M196.854751,209.976098 C196.903285,209.8495 196.989433,209.729108 197.02826,209.598786 C197.358291,208.463128 197.101061,207.522331 195.833111,207.118955 C194.601562,206.725508 193.857779,207.347328 193.505908,208.406034 C192.864046,210.337275 192.906513,212.308232 193.226837,214.258089 C193.351812,215.021401 193.988821,215.607227 194.816325,215.798365 C197.334024,216.380468 198.718456,217.990248 199.606627,220.098974 C199.652735,220.430363 199.383371,221.053424 199.906325,220.99633 C200.587014,220.924343 200.443838,220.221848 200.505719,219.731591 L200.506932,219.731591 C200.629481,219.731591 200.754456,219.737797 200.877004,219.742762 C201.117247,220.065463 201.522506,220.57806 201.807643,220.332311 C202.301476,219.904112 201.731202,219.560312 201.363557,219.276087 C200.237569,218.150357 199.07154,217.051934 197.98802,215.882764 C197.057381,214.88115 195.669309,214.203478 195.299238,212.786077 C194.953433,211.463004 196.476186,210.978953 196.854751,209.976098" id="Fill-35" fill="#AFE13A"></path>
                <path d="M230.370616,74 C230.914082,73.8084576 231.930338,74.3079226 231.997357,73.4690153 C232.055846,72.7440636 231.129762,72.8543823 230.591171,72.6604153 C230.229267,72.5294876 229.897826,72.259146 229.583444,72.0130504 C229.154521,71.6760327 229.013171,70.6964993 228.293019,71.0929194 C227.755646,71.3899314 228.116331,72.1742855 228.144358,72.7452759 C228.222344,74.4012693 229.446969,73.8908936 230.370616,74" id="Fill-37" fill="#AFE13A"></path>
                <path d="M232.924342,67.9190383 C233.377578,67.7712273 234.215246,67.6234163 233.948765,66.9382244 C233.362289,65.4262927 232.235205,66.3870645 231,66 C231.447775,67.3127625 231.769955,68.2948291 232.924342,67.9190383" id="Fill-39" fill="#AFE13A"></path>
                <path d="M224.690206,69.7847212 C226.340232,68.6942607 228.009902,69.1639975 230,69.9086078 C229.64274,68.705875 229.060811,68.0890228 229.050989,67.2579499 C229.042396,66.6527121 228.57096,66.1171604 228.194056,66.5714115 C227.016694,67.9883649 225.932637,66.7404651 224.822798,66.3146048 C223.89343,65.9571402 222.982478,65.7158193 222.346531,66.6746503 C221.86159,67.4076463 221.897193,68.2580764 222.380906,69.0543062 C222.970201,70.0208801 224.041982,70.211872 224.690206,69.7847212" id="Fill-41" fill="#AFE13A"></path>
                <path d="M282.710466,311.777267 C283.131703,311.896776 283.20731,312.418593 283.052496,313.020872 C282.950487,313.41608 282.566453,314.057406 283.138904,313.995877 C283.569742,313.950913 284.034183,313.450395 284.33781,313.007856 C285.22949,311.718104 285.879948,310.385755 287.570898,309.533808 C288.04134,309.293607 288.643794,308.083133 288.917418,307.360162 C289.315853,306.303512 288.161351,307.258402 287.81932,307.12351 C287.47609,306.986252 287.297274,306.712919 287.308075,306.311795 C287.323676,305.786428 287.215666,305.411335 286.477601,305.850324 C285.243891,306.586311 285.272694,305.837308 285.159884,305.212547 C284.924663,303.877832 284.755448,302.47922 283.288917,302 C283.573342,302.915842 283.854167,303.824585 284.10979,304.740427 C284.502225,306.135489 284.437419,307.696207 282.936086,309.50186 C281.902794,310.749015 281.582365,311.456604 282.710466,311.777267" id="Fill-43" fill="#AFE13A"></path>
                <path d="M207.306049,241.008871 C205.943274,241.198982 206.075635,242.382348 206,243.506478 C206.232307,243.911495 205.663696,245.144456 206.541598,244.986031 C207.757156,244.765613 207.865205,243.437597 207.969203,242.386481 C208.02728,241.794109 208.086707,240.901418 207.306049,241.008871" id="Fill-45" fill="#AFE13A"></path>
                <path d="M62.5555737,265.798692 C60.0987587,266.694606 59.4908622,268.485196 60.4003042,271.31277 C60.8219873,272.621993 61.5728477,274.132919 61.1211301,275.142679 C60.1360014,277.342865 61.4118632,279.806629 62.9424169,282.448585 C64.7132459,285.484051 66.2762367,285.344219 68.1599951,284.408706 C68.6453512,284.167404 68.5936921,283.462057 68.638143,282.863131 C69.027389,277.681927 68.3137713,271.99708 68.963716,266.72183 C69.1883734,264.892878 68.3786457,262.623395 66.2870491,260 C66.347118,263.316367 64.863418,264.957226 62.5555737,265.798692" id="Fill-47" fill="#AFE13A"></path>
                <path d="M52.6105124,233.314789 C55.0550913,231.748415 56.8658456,229.719894 58.3947658,227.353697 C60.9590939,223.384155 62.4372113,218.819366 64,214.094366 C61.8674951,214.305106 59.8281284,214.551585 57.7548933,214.676056 C54.7575324,214.854754 51.432373,215.528873 49.0519024,212.457746 C47.7032109,210.718838 46.3170222,208.94912 45.0626787,207.151056 C44.1228282,205.801585 43.0850011,204.503873 42.0362877,203.214789 C42.061689,201.806162 42.1052342,200.4 42.1669232,199 C42.0604794,201.379754 42,203.769366 42,206.176232 C42,218.150176 43.3365956,229.807394 45.8658456,241 C47.2665494,237.896831 49.5127557,235.298944 52.6105124,233.314789" id="Fill-49" fill="#AFE13A"></path>
                <path d="M184,260.494 C183.97926,260.183 183.837688,260.001 183.531097,260 C183.242542,260 183.015304,260.156 183.000876,260.446 C182.984645,260.739 183.195651,260.918 183.484207,260.936 C183.779075,260.955 183.950405,260.803 184,260.494" id="Fill-51" fill="#AFE13A"></path>
                <path d="M166.167181,248.011479 C166.022821,247.990854 165.86842,248.010265 165.727826,247.975081 C163.601347,247.415775 161.995818,246.118817 161.053087,244.405715 C160.194462,242.845482 159.05716,241.557016 157.772988,240.301308 C155.970376,238.542103 153.961896,236.947899 152.35009,234.998214 C151.246681,233.664858 149.531941,233.247502 147,233 C151.796503,236.60819 153.064356,241.564295 156.702216,245.172486 C157.000978,245.469731 157.247017,245.853116 157.383844,246.226795 C158.479722,249.202885 161.08447,251.14165 163.385435,253.258763 C163.792153,253.633655 164.488844,254.292447 164.851626,253.855679 C166.007758,252.46894 166.339157,250.681831 166.954254,249.035457 C167.121209,248.58777 166.824958,248.109752 166.167181,248.011479" id="Fill-53" fill="#AFE13A"></path>
                <path d="M225.009984,325.621973 C224.959928,325.881737 225.095928,326.017229 225.467097,325.998243 C225.627653,325.909353 225.921377,325.805793 225.986544,325.466632 C226.046988,325.154225 225.902488,324.951419 225.579486,325.010103 C225.269707,325.064473 225.066651,325.321648 225.009984,325.621973" id="Fill-55" fill="#AFE13A"></path>
                <path d="M230.247189,327.182507 C229.341532,327.100987 228.418612,327.059619 227.461165,327 C226.843672,327.156956 225.92872,326.958632 226.004412,328.19238 C226.062842,329.190085 226.131895,330.198741 226.353661,331.112493 C226.555508,331.948376 227.344306,332.06518 228.211453,331.973926 C229.176867,331.871723 229.66555,331.086942 230.032062,330.296078 C230.462316,329.359208 231.373284,328.37367 230.83414,327.472085 C230.73056,327.301745 230.475595,327.201975 230.247189,327.182507" id="Fill-57" fill="#AFE13A"></path>
                <path d="M188.993439,262.091908 C188.914088,261.091122 187.941121,261.119401 187.297766,261.015709 C186.774048,260.934012 185.991524,261.16025 186.000069,261.947367 C186.012277,263.15868 186.932751,262.907305 187.604183,263 C188.124239,262.820895 189.08866,263.295366 188.993439,262.091908" id="Fill-59" fill="#AFE13A"></path>
                <path d="M167.051537,256.413178 C166.836607,257.041172 167.332507,257.464674 167.826006,257.687315 C168.833416,258.143488 169.867242,258.59966 170.931086,258.846501 C173.687954,259.490225 176.460433,260.012947 179.217301,260.55382 C179.786446,260.665141 180.534499,261.376625 180.886311,260.735321 C181.33058,259.933087 180.368798,259.559195 179.791249,259.104233 C176.420809,256.450689 171.89647,258.006757 168.586066,256.011456 C167.838013,256.044126 167.250858,255.833585 167.051537,256.413178" id="Fill-61" fill="#AFE13A"></path>
                <path d="M189.985351,223 C189.043606,224.060674 187.770437,224.986517 188.035576,227 C189.293738,225.700482 190.121673,224.591011 189.985351,223" id="Fill-63" fill="#AFE13A"></path>
                <path d="M183.704701,233.219425 C183.429005,233.445696 183.207463,233.725721 182.944075,233.964492 C179.825263,236.778495 176.438139,239.233716 172.879936,241.418912 C172.006078,241.95646 171.898999,242.575266 172.066386,243.501599 C173.059631,248.96459 176.807375,252.023615 182.689302,251.999863 C184.668406,251.991112 185.309646,251.293549 184.977334,249.437132 C184.87764,248.877082 184.791485,248.334533 185.110259,247.835739 C186.278275,246.025576 187.427829,244.196662 188.693077,242.434003 C189.357702,241.50767 189.278932,238.782425 188.201994,238.401141 C186.060426,237.638572 187.057362,236.908507 188.025991,236.04968 C188.505998,235.620891 188.94785,235.149599 189.447549,234.742062 C190.150328,234.170761 190.227868,233.786976 189.41678,233.146919 C185.809345,230.297913 187.339213,230.246658 183.704701,233.219425" id="Fill-65" fill="#AFE13A"></path>
                <path d="M270,282.786462 C269.591976,281.721387 268.579968,281.17084 267.228388,281.008763 C266.68883,280.943161 266.041897,281.24802 266.004315,281.851305 C265.90902,283.400038 267.412267,283.533816 268.504806,283.948012 C269.131606,284.191127 269.609424,283.544107 270,282.786462" id="Fill-67" fill="#AFE13A"></path>
                <path d="M268.093695,328.776911 C269.690665,329.486126 271.367111,328.490977 272.471082,325.982503 C273.791128,322.947112 276.601349,320.860671 278.555961,318.224837 C279.387975,317.099832 280.300707,316.074717 279.904569,315.361755 C279.349479,314.365358 278.156097,315.657678 277.209837,316.468031 C276.914285,316.722749 276.574029,317.052385 276.408868,317.359545 C275.506071,319.040185 274.05936,320.166439 272.673497,321.373853 C270.213468,323.521476 267.993108,325.883862 266,328.694502 C266.930117,328.37985 267.526187,328.525939 268.093695,328.776911" id="Fill-69" fill="#AFE13A"></path>
                <g id="Group-79" transform="translate(42.000000, 52.000000)" fill="#24BCB1">
                    <path d="M181.702055,305.836919 C191.926031,304.016026 201.79809,301.181074 211.215233,297.447324 L181.932579,302.22211 L181.702055,305.836919 Z" id="Fill-71"></path>
                    <path d="M148.906364,75.6064143 L248.577257,102.007521 L251.361936,102.745688 L267.474079,50.0305333 C264.968971,47.3206524 262.370674,44.697831 259.67796,42.1755571 C259.728233,42.1657476 259.777281,42.1571643 259.828781,42.14245 C255.750471,38.3130571 251.467388,34.7019262 246.98934,31.3323548 C246.907186,31.3237714 246.825031,31.3164143 246.742876,31.3090571 C221.051733,12.0382476 189.131543,0.618735714 154.544388,0.618735714 C144.131579,0.618735714 133.971364,1.6769381 124.142221,3.64987857 L174.001579,62.6578429 L148.906364,75.6064143 Z" id="Fill-73"></path>
                    <path d="M286.027689,198.279414 L187.527808,214.341283 L189.321725,186.159748 L113.373939,260.087998 L131.152475,279.786748 L156.797023,308.200033 C165.282261,308.077414 173.603189,307.28039 181.702177,305.837164 L181.932701,302.222355 L211.215356,297.447569 C268.113046,274.883212 308.348035,219.35395 308.348035,154.423486 C308.348035,149.858379 308.138356,145.341093 307.748427,140.87776 C306.039118,161.06576 300.439106,180.145283 291.686558,197.356093 L286.027689,198.279414 Z" id="Fill-75"></path>
                    <path d="M39.4460571,239.936293 L43.938819,230.192983 L85.7200333,139.559114 L108.077164,156.809162 L89.2759857,52.5020429 L66.0764619,55.785781 L32.7056881,60.5102929 C24.0303905,71.7728524 16.8645333,84.2603762 11.5465452,97.6847095 C11.4864619,97.8343048 11.4251524,97.9839 11.3662952,98.1347214 C11.0290929,98.9930548 10.7041524,99.857519 10.3828905,100.72321 C10.2075452,101.190388 10.0346524,101.657567 9.8642119,102.128424 C9.60916429,102.837162 9.35779524,103.548352 9.11255714,104.263221 C8.87590238,104.947436 8.64783095,105.635329 8.42098571,106.323221 C8.23950952,106.87746 8.05435476,107.432924 7.87900952,107.992067 C7.55652143,109.012257 7.24629524,110.038579 6.94465238,111.068579 C6.87108095,111.3224 6.79137857,111.573769 6.71903333,111.82759 C2.82833095,125.35615 0.738902381,139.644948 0.738902381,154.424221 C0.738902381,215.96059 36.883319,269.048507 89.0969619,293.637305 C68.5484619,280.009424 51.4651762,261.57365 39.4460571,239.936293" id="Fill-77"></path>
                </g>
                <path d="M204,43.131062 L185.187226,20.8507794 C176.409805,10.4532326 163.810906,5.50341799 151.399047,6.0392605 C140.467614,6.51026362 129.680433,11.2361988 121.775865,20.2427571 L119.892021,22.3897973 L79,68.9848513 L120.13285,73 C142.408915,60.1202056 168.224066,52.6905902 195.760472,52.5193163 L204,43.131062 Z" id="Fill-80" fill="#E5D4B1"></path>
                <path d="M334,276 L357.022486,272.215382 C370.386651,270.019444 381.058754,261.726407 386.954029,250.766349 C392.144646,241.114039 393.633069,229.393377 389.994161,217.947514 L389.126421,215.219154 L370.294157,156 L349.025406,184.966744 C349.990508,191.95694 350.500442,199.095576 350.500442,206.354437 C350.500442,231.421246 344.549184,255.087071 334,276" id="Fill-82" fill="#E5D4B1"></path>
                <path d="M62.6624643,280 L54.8877338,296.831951 C49.1554233,309.239483 50.0179152,322.807458 55.7957495,333.875261 C60.8845745,343.621755 69.7863273,351.428038 81.3604514,354.792709 L84.1189489,355.594581 L144,373 L134.374788,345.844403 C103.95011,332.174506 78.7729758,308.947223 62.6624643,280" id="Fill-84" fill="#E5D4B1"></path>
                <path d="M345.935116,78.6324546 L308.096569,33.7923561 L292.124316,14.8645512 C283.375596,4.4949799 270.832871,-0.45894898 258.458931,0.0333821475 L258.458931,0.027258626 L151,5.68661719 L151,5.68906659 C163.417971,5.15387082 176.023074,10.1077997 184.80604,20.5165615 L203.626855,42.8221009 L212.236143,53.0238877 L267.876677,118.961967 L242.846264,131.89362 L342.264641,158.263953 L345.041042,159 L374,64.1319557 L345.935116,78.6324546 Z" id="Fill-86" fill="#95EB95"></path>
                <g id="Group-90" transform="translate(155.000000, 250.000000)">
                    <mask id="mask-7" fill="white">
                        <use xlink:href="#path-6"></use>
                    </mask>
                    <g id="Clip-89"></g>
                    <path d="M231.907413,0.171940909 C225.967139,11.1376227 215.214803,19.4327591 201.747403,21.6295773 L178.549187,25.4157136 L172.889739,26.33985 L74.3797921,42.4146682 L76.1738921,14.2094864 L0.218344737,88.2029864 L17.9986974,107.917895 L66.7717289,162.000123 L68.7828868,130.373305 L126.797434,120.90735 L151.288187,116.910123 C164.702855,114.720668 175.423308,106.478305 181.378297,95.5752136 L181.383203,95.5776682 L231.909866,0.174395455 L231.907413,0.171940909 Z" id="Fill-88" fill="#95EB95" mask="url(#mask-7)"></path>
                </g>
                <g id="Group-93" transform="translate(0.000000, 93.000000)">
                    <mask id="mask-9" fill="white">
                        <use xlink:href="#path-8"></use>
                    </mask>
                    <g id="Clip-92"></g>
                    <path d="M111.966802,0.0930090909 L88.8042879,3.37964545 L13.7780168,14.0274636 L38.8063626,33.3852364 L14.2383533,86.8084182 L3.86731589,109.360782 C-1.81465607,121.713282 -0.983357009,135.218191 4.70718505,146.255055 L4.70228785,146.258736 L55.3784748,241.538055 L55.3821477,241.538055 C49.6328393,230.476645 48.7758299,216.915282 54.478615,204.516145 L62.2149607,187.693918 L66.6995682,177.942009 L108.417559,87.2269182 L130.740204,104.492191 L111.966802,0.0930090909 Z" id="Fill-91" fill="#95EB95" mask="url(#mask-9)"></path>
                </g>
            </g>
            <g id="Group-54" transform="translate(1088.000000, 118.000000)">
                <path d="M19,109.681651 C22.1510161,111.848778 26.688157,114.897649 27.2119832,115.171969 L39.8281359,120 L42,114.662517 L21.5304835,103.866067 L21.7198669,103 L21.385424,103.815122 L19.1934128,109.219225 L19,109.681651 Z" id="Fill-1" fill="#195467"></path>
                <path d="M63.7260274,120.922131 L41.1716358,115 L39,120.581967 L51.719581,125.668033 C53.2586624,126.286885 58.5850121,126.766393 61.4536664,127 L61.6228848,126.57377 L63.8066076,120.954918 L64,120.463115 L63.7260274,120.922131 Z" id="Fill-3" fill="#0F4956"></path>
                <path d="M12.0847556,152.779065 C11.9992242,152.746461 7.45791311,150.386744 4,147 L4.89604344,151.157014 C8.57389449,157.897898 14.4959271,163.138996 21.6398371,165.942943 L21.7783165,166 L25,157.857143 L12.0847556,152.779065 Z" id="Fill-5" fill="#195467"></path>
                <path d="M13,124.161985 C16.1285441,126.442373 20.6333275,129.640678 21.153418,129.928814 L33.6795965,135 L36,128.965617 L23.3137937,123.828571 C23.2337798,123.795642 18.7690033,121.420581 15.3724126,118 L15.3684119,118.004116 L13.1920334,123.680387 L13,124.161985 Z" id="Fill-7" fill="#195467"></path>
                <path d="M24.1373949,158 L21,165.792185 L21.0832937,165.823385 C28.0363319,168.51438 35.7390132,168.71718 42.8467396,166.392784 L46,164.700187 C43.2235443,164.754787 40.0345867,164.154188 36.6552435,162.843791 L24.1373949,158 Z" id="Fill-9" fill="#0F4956"></path>
                <path d="M7,139.165739 C10.1285441,141.444471 14.6333275,144.648681 15.153418,144.936608 L27.6795965,150 L30,143.965884 L17.3137937,138.832567 C17.2337798,138.803774 12.773004,136.430438 9.37241259,133 L9.3684119,133.01234 L7.1920334,138.688604 L7,139.165739 Z" id="Fill-11" fill="#195467"></path>
                <path d="M30.3797801,143 L28,148.807984 L40.945183,153.725173 C42.5166585,154.315078 47.9368127,154.778291 50.862301,155 L51.0305268,154.600132 L53,149.805675 C50.1237486,149.849225 46.824881,149.239525 43.3249631,147.917189 L30.3797801,143 Z" id="Fill-13" fill="#0F4956"></path>
                <path d="M46.945183,139.717678 C48.5207615,140.315303 53.9368127,140.774406 56.862301,141 L57.0305268,140.592348 L59,135.795515 C56.1278516,135.846966 52.8289841,135.237467 49.3290661,133.911609 L36.3797801,129 L34,134.802111 L46.945183,139.717678 Z" id="Fill-15" fill="#0F4956"></path>
                <path d="M61.9549507,127.146207 C59.069266,126.91857 53.7153482,126.459371 52.1630768,125.870654 L39.3720361,121 L36,129.25774 L48.7910407,134.128393 C52.2441353,135.443195 55.5067423,136.051536 58.339739,135.996589 L58.5991264,135.372549 C58.8017728,135.557014 58.9679428,135.749328 59.1543775,135.941642 C63.2073055,135.674757 66.2632132,133.994951 67.4993562,130.984644 C68.7922402,127.809495 67.5277267,124.347838 64.3218607,121.35323 L62.1251737,126.73803 L61.9549507,127.146207 Z" id="Fill-17" fill="#349299"></path>
                <path d="M35.641851,129 L39,120.5624 L26.3625425,115.621752 C25.8378317,115.341033 21.2930291,112.217036 18.1366919,110.003369 L18.3304312,109.530157 L20.5261441,104 C16.094356,104.084216 12.7200621,105.836702 11.4082851,109.129131 C10.0965081,112.421559 12.1348077,115.685916 14.8310139,118.316651 C18.257779,121.649182 22.7622193,123.963106 22.842944,123.995188 L35.641851,129 Z" id="Fill-19" fill="#3FA4A9"></path>
                <path d="M13.6951723,123.412391 L16,118 C11.3437396,118.082422 7.80176165,119.797589 6.42903337,123.019905 C5.05206827,126.24222 7.18742337,129.433137 10.0218531,132 L13.4918051,123.871601 L13.6951723,123.412391 Z" id="Fill-21" fill="#3FA4A9"></path>
                <path d="M56.3748486,140.803806 L56.215804,141.211307 L53,149.420095 C53.197836,149.604254 53.3607597,149.811923 53.5430791,150 C57.4144572,149.721802 60.339326,148.056535 61.5263417,145.031626 C62.6862035,142.073328 61.6659906,138.844668 59.0126613,136 C58.7527592,136.019591 58.5044945,136.050938 58.2329549,136.054856 L56.3748486,140.803806 Z" id="Fill-23" fill="#349299"></path>
                <path d="M30.6653307,143 L34,134.560904 L21.4509018,129.619379 C20.9298597,129.338611 16.4168337,126.218071 13.2825651,124 L10,132.306734 C13.4068136,135.651889 17.8757515,137.966223 17.9559118,137.9943 L30.6653307,143 Z" id="Fill-25" fill="#3FA4A9"></path>
                <path d="M33.3778888,135 L30,143.253894 L42.8091818,148.130125 C46.2723298,149.440391 49.5365397,150.044526 52.3825734,149.99745 L52.6342911,149.365855 L56,141.143345 C53.1052467,140.919736 47.7460962,140.468597 46.1870706,139.872308 L33.3778888,135 Z" id="Fill-27" fill="#349299"></path>
                <path d="M58,135.636 C58.276,135.632 58.536,135.6 58.8,135.58 C58.616,135.388 58.452,135.188 58.252,135 L58,135.636 Z" id="Fill-29" fill="#A6CFE5"></path>
                <path d="M50.9172738,154.786492 L50.7453164,155.18504 L47,164 C51.6176857,163.921853 55.1197453,162.218253 56.4870165,159.006419 C57.7410474,156.044655 56.6421976,152.840636 53.7776387,150 C53.4882469,150.015629 53.2240197,150.046888 52.9262397,150.054703 L50.9172738,154.786492 Z" id="Fill-31" fill="#349299"></path>
                <g id="Group-35" transform="translate(0.000000, 132.000000)">
                    <mask id="mask-11" fill="white">
                        <use xlink:href="#path-10"></use>
                    </mask>
                    <g id="Clip-34"></g>
                    <path d="M7.2672,6.3292 L9.4432,0.8092 C5.0472,0.8932 1.7032,2.6332 0.4032,5.9252 C-0.8968,9.2132 1.1232,12.4652 3.7992,15.0852 L7.0752,6.7932 L7.2672,6.3292 Z" id="Fill-33" fill="#3FA4A9" mask="url(#mask-11)"></path>
                </g>
                <path d="M24.6653307,158 L28,149.560904 L15.4509018,144.627401 C14.9298597,144.346633 10.4168337,141.218071 7.28256513,139 L4,147.314756 C7.40280561,150.647878 11.8717435,152.970234 11.9559118,153.002322 L24.6653307,158 Z" id="Fill-36" fill="#3FA4A9"></path>
                <path d="M41.1870706,153.874422 L28.3778888,149 L25,157.25355 L37.8132417,162.131896 C41.2723298,163.446656 44.5365397,164.054977 47.3744535,163.996108 L51,155.138161 C48.1052467,154.91838 42.7420362,154.459195 41.1870706,153.874422" id="Fill-38" fill="#349299"></path>
                <path d="M53,150.644 C53.28,150.636 53.536,150.604 53.808,150.588 C53.62,150.396 53.452,150.188 53.248,150 L53,150.644 Z" id="Fill-40" fill="#A6CFE5"></path>
                <path d="M39.6434109,29.5487732 C39.0623281,31.0034121 37.3719055,31.7106399 35.8684046,31.1279806 C34.3730308,30.5493398 33.6334709,28.8937839 34.2064266,27.439145 C40.9437359,10.5942661 60.5623906,2.38881691 77.942048,9.15570054 C79.4374219,9.73835976 80.1810453,11.3898973 79.5999625,12.8405178 C79.0229432,14.2951567 77.3284571,15.0023844 75.8330833,14.4157069 C61.4482371,8.82217837 45.2144911,15.6171904 39.6434109,29.5487732 Z M47.6851088,99.3834945 L53.9510503,83.7119707 L69.9775569,43.645108 L86,3.56217203 C61.5254439,-5.96129246 34.5111903,4.26939978 25.6608527,26.4024135 C23.425919,31.9838869 22.5644536,37.8024425 22.922043,43.5165212 C23.6494124,55.2500723 27.9689297,68.6592711 26.0834584,80.1477036 L21,103 L25.8437109,90.8887249 L47.6851088,99.3834945 Z" id="Fill-42" fill="#7BCFE4"></path>
                <polygon id="Fill-44" fill="#7BCFE4" points="41.7409648 115 48 99.4701169 26.0586723 91 21.1918948 103.076127 21 103.961603"></polygon>
                <path d="M54.2273884,84.3222276 L48,100.023439 L69.6383574,108.516349 L64.6911779,121 L76.9117209,100.510704 C83.4419979,90.8298341 95.8079274,83.9155022 104.409962,75.8212639 C108.597901,71.8748193 111.978137,67.0343843 114.19932,61.4409031 C122.987126,39.264301 110.407155,13.5479796 86.083186,4 L70.1552872,44.1651408 L54.2273884,84.3222276 Z" id="Fill-46" fill="#64B9CD"></path>
                <polygon id="Fill-48" fill="#64B9CD" points="48.2289943 100 42 115.297125 64.7421274 121 65.0224931 120.557978 70 108.319489"></polygon>
                <path d="M78.8057067,13.168605 C79.3768054,11.6954622 78.6459589,10.0136241 77.1762784,9.41618288 C60.0952375,2.52514808 40.8136696,10.8811416 34.1921204,28.0350715 C33.6250154,29.5163984 34.355862,31.2023285 35.8255424,31.7915857 C37.3032102,32.3849349 38.964588,31.6688238 39.5356866,30.1834048 C45.0110449,15.9962209 60.9658634,9.07654162 75.1035498,14.776786 C76.5732302,15.3701352 78.2386018,14.649932 78.8057067,13.168605" id="Fill-50" fill="#FFFFFF"></path>
                <path d="M58.2349371,54.7865409 C56.4582957,55.2400724 55.2914853,56.1310812 54.966242,56.949846 C54.8076859,57.3431742 54.8483413,57.7043939 55.1004049,58.0856814 C55.3727962,58.4870367 55.9826273,59.0810426 57.3893046,59.6268858 C57.7470722,59.7633466 59.4952549,60.4095286 59.7554495,59.759333 C60.1376104,58.8000939 59.4708617,56.7130463 58.2349371,54.7865409 Z M70.6551654,58.6756737 C69.5737315,58.888392 68.8459996,59.2897473 68.5044941,59.526547 C67.4677811,60.2128645 66.8864087,61.1921714 66.9799162,62.0631124 C67.0815547,62.9340534 67.8418109,63.6886014 69.1305875,64.1902955 C70.3380532,64.6598812 71.0942438,64.607705 71.508929,64.491312 C71.9358109,64.3628783 72.2203987,64.0979838 72.395217,63.6725472 C72.8220988,62.5929014 72.3789549,60.5780978 70.6551654,58.6756737 Z M52.8155708,118 L50.616113,116.739744 L80.4571852,66.2492482 C80.4449885,65.2097379 80.2173182,61.4731201 77.4242914,59.9961327 C76.0948595,59.2897473 74.8914593,58.8924056 73.8344186,58.6917279 C75.106933,60.7426535 75.4443729,62.901945 74.761362,64.5916508 C74.3100869,65.7314998 73.4116023,66.5502646 72.2325954,66.8954302 C71.0698506,67.2365822 69.7078943,67.1081485 68.195513,66.5221698 C65.2114058,65.362253 64.5731158,63.4036391 64.4511496,62.3440611 C64.2478725,60.5098674 65.2276679,58.6716602 67.0815547,57.443513 C67.4799778,57.1786185 67.902794,56.949846 68.345938,56.761209 C67.6100751,56.2956368 66.7766391,55.8742138 65.8253025,55.4969398 C64.0527265,54.8106222 62.418379,54.5216464 60.983243,54.4935516 C62.2029053,56.7291005 62.7598845,59.0930832 62.1215945,60.6784367 C61.7313025,61.6497165 60.938522,62.2958985 59.8814813,62.4845355 C58.9464068,62.6651454 57.8161864,62.488549 56.4582957,61.9587601 C54.8198826,61.3326458 53.6490067,60.4857861 52.9700613,59.4583166 C52.2667227,58.3987386 52.1366254,57.182632 52.5960315,56.0307423 C53.1733384,54.5738226 54.6084744,53.3858109 56.5721308,52.6874527 C55.8118746,51.9088234 54.966242,51.2786956 54.0880852,50.9455707 C50.075396,49.3883122 48.1117396,52.6071817 47.7214477,53.3537025 L34.4881112,110.474588 L32,109.912691 L45.2983852,52.522897 L45.3593683,52.3984769 C46.3960813,50.1910228 49.7542183,46.5547438 55.0231596,48.6056694 C56.588393,49.2077023 58.1129709,50.5080935 59.3692231,52.065352 C61.576812,51.8486202 64.1299718,52.1496366 66.760377,53.1690791 C68.6793124,53.9155999 70.2852012,54.9069475 71.55365,56.0387694 C73.7734355,55.9304035 76.2290223,56.5163822 78.6358227,57.784665 C83.3233917,60.2610272 83.0062795,66.4138038 82.9900173,66.6827119 L82.9737551,66.9757012 L82.8233301,67.2365822 L52.8155708,118 Z" id="Fill-52" fill="#FFFFFF"></path>
            </g>
            <g id="Group-35" transform="translate(205.000000, 506.000000)">
                <g id="Group-3" transform="translate(31.000000, 58.000000)">
                    <mask id="mask-13" fill="white">
                        <use xlink:href="#path-12"></use>
                    </mask>
                    <g id="Clip-2"></g>
                    <path d="M70.0298057,64.5099904 L64.9722736,59.4066469 L75.125018,49.1576084 L26.7853946,0.389972902 L0.0365765224,27.3847544 L61.5643009,89.4591993 C65.1523017,93.0760087 70.9718129,93.0802439 74.5598137,89.4591993 L94.8150621,69.0204143 L80.1867368,54.2651871 L70.0298057,64.5099904 Z" id="Fill-1" fill="#2A6C7C" mask="url(#mask-13)"></path>
                </g>
                <g id="Group-6" transform="translate(58.000000, 31.000000)">
                    <mask id="mask-15" fill="white">
                        <use xlink:href="#path-14"></use>
                    </mask>
                    <g id="Clip-5"></g>
                    <path d="M49.1994813,75.2369551 L59.389443,65.1093309 L64.4739187,70.1584896 L54.2755529,80.2861138 L68.9617038,94.8725721 L89.2870005,74.6717508 C92.888154,71.0963101 92.888154,65.289359 89.2870005,61.7139183 L27.533732,0.34947516 L0.682657801,27.0271194 L49.1994813,75.2369551 Z" id="Fill-4" fill="#195467" mask="url(#mask-15)"></path>
                </g>
                <path d="M52.4194482,52.6455429 L49.8435226,55.1791664 L42.0773626,47.5192765 L34.3069379,55.1791664 L29.1508218,50.0992725 L36.9212465,42.4351669 L29.1508218,34.7837084 L31.7267475,32.2416536 L23.3677834,24 L6.76500435,40.3694839 L2.73905433,44.3406541 C-0.91586005,47.9534915 -0.911595272,53.7879921 2.7433191,57.3966139 L31.7523361,86 L59,59.1292582 L52.4194482,52.6455429 Z" id="Fill-7" fill="#64B9CD"></path>
                <path d="M44.3428959,2.74192379 L40.3735504,6.76127407 L24,23.3688874 L32.2414378,31.7282808 L34.785351,29.1499103 L42.4423194,36.914953 L50.0992879,29.1499103 L55.1829095,34.3109271 L47.5217362,42.0759698 L55.1829095,49.8452884 L52.6432011,52.4236588 L59.1312309,59 L86,31.7539362 L57.3946423,2.74192379 C53.7953204,-0.913974598 47.9464225,-0.913974598 44.3428959,2.74192379" id="Fill-9" fill="#53ADBC"></path>
                <path d="M40,7.03559729 L39.926513,6.96134527 C36.0100865,3.01288491 29.6556196,3.01288491 25.7391931,6.96134527 L16,16.7757152 L23.167147,24 L40,7.03559729 Z" id="Fill-11" fill="#69B2B2"></path>
                <path d="M16.7759926,16 L6.96389086,25.7369942 C3.01203638,29.6604046 3.01203638,36.0115607 6.96389086,39.9306358 L7.0379609,40 L24,23.166185 L16.7759926,16 Z" id="Fill-13" fill="#7DC5C9"></path>
                <polygon id="Fill-15" fill="#FFFFFF" points="42 46.7454545 50.2602062 55 53 52.2727273 44.7397938 44"></polygon>
                <polygon id="Fill-17" fill="#FFFFFF" points="52.2602062 53 55 50.2545455 46.7397938 42 44 44.7318182"></polygon>
                <polygon id="Fill-19" fill="#FFFFFF" points="37.2602062 42 40 39.2568238 31.7397938 31 29 33.7431762"></polygon>
                <polygon id="Fill-21" fill="#FFFFFF" points="42 37.2579578 33.7431987 29 31 31.7420422 39.2613355 40"></polygon>
                <polygon id="Fill-23" fill="#FFFFFF" points="29 49.8206486 34.1854174 55 42 47.187955 36.8145826 42"></polygon>
                <polygon id="Fill-25" fill="#FFFFFF" points="55 34.1905392 49.8171617 29 42 36.8094608 47.1871287 42"></polygon>
                <polygon id="Fill-27" fill="#FFFFFF" points="42.6679537 44 45 41.6731195 40.3359073 37 38 39.3346239"></polygon>
                <polygon id="Fill-29" fill="#FFFFFF" points="39.3320463 38 37 40.3333333 41.6679537 45 44 42.6627971"></polygon>
                <polygon id="Fill-31" fill="#FFFFFF" points="101.986241 121 112 110.990345 107.009631 106 97 116.013793"></polygon>
                <polygon id="Fill-33" fill="#FFFFFF" points="123 101.990345 118.011004 97 108 107.009655 112.988996 112"></polygon>
            </g>
            <g id="Group-24" transform="translate(995.000000, 570.000000)">
                <path d="M28,68 L57,171 C47.3322719,136.664519 37.6645438,102.329038 28,68" id="Fill-1" fill="#59910B"></path>
                <path d="M23,50 L28,67 C26.3322581,61.3270856 24.6677419,55.660419 23,50" id="Fill-3" fill="#59910B"></path>
                <path d="M23.0558656,50.518339 L12.4311462,13 L4,15.4049391 L13.9544609,60.9408163 C13.0308511,62.0755865 12.1104483,63.2264755 11.1964595,64.3805884 C6.07812199,70.9667687 4.37521647,79.8418321 6.45975242,87.2178382 C13.9801167,113.75921 21.503688,140.307029 29.0240523,166.848401 C29.5852736,168.831025 30.8969277,170.633118 32.5677635,172 C33.4240267,169.511243 35.0980694,167.296507 37.3910589,166.145617 C42.7370919,163.502119 48.2947855,161.364753 54,159.736745 L28.0266821,68.0621439 L23.0558656,50.518339 Z" id="Fill-5" fill="#59910B"></path>
                <g id="Group-9" transform="translate(32.000000, 159.000000)">
                    <mask id="mask-17" fill="white">
                        <use xlink:href="#path-16"></use>
                    </mask>
                    <g id="Clip-8"></g>
                    <path d="M5.6888,6.7392 C3.36505,7.8784 1.6718,10.08 0.8008,12.5472 C2.1203,13.6064 3.67055,14.3744 5.2988,14.7392 C6.2153,14.9408 7.1383,15.056 8.07105,14.9728 C14.0803,14.4 20.0148,13.3056 25.79655,11.6896 L22.5238,0.3776 C16.7388,1.9936 11.10655,4.1152 5.6888,6.7392" id="Fill-7" fill="#416B00" mask="url(#mask-17)"></path>
                </g>
                <path d="M57.0629328,72.333218 C54.9685221,64.9671213 48.855541,58.3192754 41.0400482,55.4140637 C39.6491282,54.9116102 38.2646327,54.4188193 36.8801373,53.9485744 L21.445101,10 L13,12.3995374 L23.6455172,49.8806338 C25.303057,55.720045 26.9638091,61.5594561 28.6213489,67.4117507 C37.2977345,97.9390199 45.9676955,128.472731 54.6408689,159 C60.3555264,157.376689 66.2211614,156.265494 72.1638913,155.701844 C74.717659,155.463501 77.3099742,156.47807 79.3465638,158.140032 C80.0564791,156.091567 80.2267302,153.875619 79.6645801,151.888351 C72.1317684,125.371047 64.5989568,98.850522 57.0629328,72.333218" id="Fill-10" fill="#416B00"></path>
                <path d="M71.7317644,156.035198 C65.7149915,156.609505 59.7827331,157.744993 54,159.395715 C55.0921857,163.264904 56.1811208,167.137375 57.276557,171 C63.0592901,169.349277 68.6924977,167.16691 74.1111689,164.47259 C74.9433104,164.059089 75.6811858,163.465091 76.3475491,162.805458 C77.5372513,161.624027 78.440905,160.137392 79,158.519487 C76.9391497,156.826101 74.3159537,155.792348 71.7317644,156.035198" id="Fill-12" fill="#2E4900"></path>
                <g id="Group-16" transform="translate(0.000000, 2.000000)">
                    <mask id="mask-19" fill="white">
                        <use xlink:href="#path-18"></use>
                    </mask>
                    <g id="Clip-15"></g>
                    <path d="M2.13568,2.18886667 C0.58368,2.6322 -0.32832,4.18386667 0.10688,5.67536667 L2.22848,13.0727 C2.66368,14.5610333 4.26368,15.4097 5.81248,14.9758667 L5.96288,14.9315333 L13.40288,12.8478667 L11.73568,7.05603333 L9.72288,0.0640333333 L2.13568,2.18886667 Z" id="Fill-14" fill="#729F02" mask="url(#mask-19)"></path>
                </g>
                <g id="Group-19" transform="translate(10.000000, 0.000000)">
                    <mask id="mask-21" fill="white">
                        <use xlink:href="#path-20"></use>
                    </mask>
                    <g id="Clip-18"></g>
                    <path d="M7.4512,0.174583333 L0.1232,2.22975 L2.136,9.22175 L3.8,15.01675 L10.984,13.0090833 L11.1248,12.9615833 C12.6256,12.5404167 13.496,10.9919167 13.064,9.50991667 L10.936,2.11258333 C10.5072,0.62425 8.9488,-0.24025 7.4512,0.174583333" id="Fill-17" fill="#59910B" mask="url(#mask-21)"></path>
                </g>
                <polygon id="Fill-20" fill="#92D205" points="9 21.3926937 16.685017 60 20 59.0166431 10.3297389 21"></polygon>
                <path d="M15.9560873,63.5325972 C15.9560873,63.5325972 11.121171,71.7474588 11.0035482,77.2208417 C10.8890207,82.6974162 13.5850592,88.732499 13.5850592,88.732499 C13.5850592,88.732499 16.9218324,92.1761026 18.6490304,87.7112264 C19.738589,84.9027267 18.0609164,80.5559351 16.7577795,77.1506293 C15.9220386,74.9644676 16.4203878,69.8229982 17.0518365,67.5634326 C17.8225754,64.8283368 18.3209247,61.7389872 15.9560873,63.5325972" id="Fill-22" fill="#92D205"></path>
            </g>
            <g id="Group-25" transform="translate(98.000000, 117.000000)">
                <polygon id="Fill-1" fill="#F4F4E4" points="114 65.4808036 24 124 24 56 87.1373252 56"></polygon>
                <polygon id="Fill-2" fill="#BCB691" points="52 134 25 124.213951 25 57 52 66.1329316"></polygon>
                <polygon id="Fill-3" fill="#CCC8A3" points="51 134 114 134 114 66 51 66"></polygon>
                <polygon id="Fill-4" fill="#F4F4E4" points="134 21.3386354 198.016548 44 214 25.6613646 149.983452 3"></polygon>
                <polygon id="Fill-5" fill="#ADA67D" points="198 153 134 129.482938 134 22 198 44.8697049"></polygon>
                <polygon id="Fill-6" fill="#1C75BC" points="98 130 134 130 134 22 98 22"></polygon>
                <polygon id="Fill-7" fill="#BCB691" points="162 153 98 129.482938 98 22 162 44.8697049"></polygon>
                <polygon id="Fill-8" fill="#E0DDC6" points="162 153 198 153 198 45 162 45"></polygon>
                <polygon id="Fill-9" fill="#CEC9A7" points="98.3441427 22.0304222 162 45 149.655857 22.9731899 86 0"></polygon>
                <polygon id="Fill-10" fill="#D2F9FF" points="0 131.448155 52.1173847 155 139 131.548269 86.8826153 108"></polygon>
                <polygon id="Fill-11" fill="#195467" points="51.7478057 122 13 132.481827 29.5918991 140 68 129.607547"></polygon>
                <polygon id="Fill-12" fill="#195467" points="85.6309124 112 58 119.577413 89.6120634 134 119 128.444444"></polygon>
                <polygon id="Fill-13" fill="#195467" points="113.258872 125 40 145.012656 47.0906143 148 120 128.085588"></polygon>
                <polygon id="Fill-14" fill="#195467" points="122.259176 129 49 149.012656 56.1011034 152 129 132.085588"></polygon>
                <g id="Group-24" transform="translate(0.000000, 131.000000)">
                    <path d="M140.948571,14.1965273 L54.37,37.4582545 C58.9557143,36.2208909 62.2021429,32.9838909 62.245,28.4138 L146.991429,9.27189091 C146.962857,13.8278 145.530714,12.9698 140.948571,14.1965273" id="Fill-15" fill="#D2F9FF"></path>
                    <polygon id="Fill-17" fill="#E1E2E1" points="62.2446429 28.1567545 148.823214 4.90211818 148.819643 5.16802727 62.2446429 28.4120273"></polygon>
                    <path d="M52.1442857,24.1092636 L138.73,0.854627273 C144.837143,3.58817273 147.033571,4.24053636 146.994286,9.27153636 L61.5407143,31.8135364 C61.5764286,26.7860818 58.2585714,26.8428091 52.1442857,24.1092636" id="Fill-19" fill="#D2F9FF"></path>
                    <g id="Group-23">
                        <mask id="mask-23" fill="white">
                            <use xlink:href="#path-22"></use>
                        </mask>
                        <g id="Clip-22"></g>
                        <path d="M0.205,0.755709091 L52.1442857,24.1096182 C58.2585714,26.8396182 61.5764286,26.7864364 61.5407143,31.8138909 L62.2442857,28.4138 C62.1871429,35.2423455 54.9371429,39.1139818 46.7978571,37.7170727 C45.0407143,37.4192545 43.2514286,36.8768 41.48,36.0613455 L-0.00214285714,17.0896182 L0.205,0.755709091 Z" id="Fill-21" fill="#BDD1BD" mask="url(#mask-23)"></path>
                    </g>
                </g>
            </g>
        </g>
    </g>
</svg>